<mxfile host="app.diagrams.net" modified="2024-04-02T14:26:10.178Z" agent="Mozilla/5.0 (Windows NT 10.0; Win64; x64) AppleWebKit/537.36 (KHTML, like Gecko) Chrome/123.0.0.0 Safari/537.36" etag="a1bNzfj8UKWLR3dNvu6W" version="24.2.1" type="device">
  <diagram name="PÃ¡gina-1" id="3qKrQh4Kaev46625uwoE">
    <mxGraphModel dx="1434" dy="780" grid="1" gridSize="10" guides="1" tooltips="1" connect="1" arrows="1" fold="1" page="1" pageScale="1" pageWidth="827" pageHeight="1169" math="0" shadow="0">
      <root>
        <mxCell id="0" />
        <mxCell id="1" parent="0" />
        <mxCell id="1gCm8H_iiXRdlCHyErIo-16" value="" style="rounded=1;whiteSpace=wrap;html=1;direction=south;fillColor=#dae8fc;strokeColor=#6c8ebf;gradientColor=#7ea6e0;" vertex="1" parent="1">
          <mxGeometry x="20" y="440" width="274" height="370" as="geometry" />
        </mxCell>
        <mxCell id="1gCm8H_iiXRdlCHyErIo-17" value="" style="rounded=1;whiteSpace=wrap;html=1;direction=south;fillColor=#dae8fc;strokeColor=#6c8ebf;gradientColor=#7ea6e0;" vertex="1" parent="1">
          <mxGeometry x="300" y="450" width="270" height="370" as="geometry" />
        </mxCell>
        <mxCell id="1gCm8H_iiXRdlCHyErIo-18" value="BEM VINDO(A) AO SALAO BEAUTY&lt;div&gt;&amp;nbsp;&lt;div&gt;aqui vamos agendar seu procedimento&lt;/div&gt;&lt;/div&gt;" style="rounded=1;whiteSpace=wrap;html=1;fillColor=#cce5ff;strokeColor=#36393d;" vertex="1" parent="1">
          <mxGeometry x="72" y="470" width="150" height="80" as="geometry" />
        </mxCell>
        <mxCell id="1gCm8H_iiXRdlCHyErIo-21" value="inicio" style="rounded=1;whiteSpace=wrap;html=1;fillColor=#cce5ff;strokeColor=#36393d;" vertex="1" parent="1">
          <mxGeometry x="90" y="610" width="120" height="60" as="geometry" />
        </mxCell>
        <mxCell id="1gCm8H_iiXRdlCHyErIo-22" value="nome:" style="rounded=1;whiteSpace=wrap;html=1;fillColor=#cce5ff;strokeColor=#36393d;" vertex="1" parent="1">
          <mxGeometry x="375" y="460" width="120" height="60" as="geometry" />
        </mxCell>
        <mxCell id="1gCm8H_iiXRdlCHyErIo-23" value="numero:_________" style="rounded=1;whiteSpace=wrap;html=1;fillColor=#cce5ff;strokeColor=#36393d;" vertex="1" parent="1">
          <mxGeometry x="375" y="530" width="120" height="60" as="geometry" />
        </mxCell>
        <mxCell id="1gCm8H_iiXRdlCHyErIo-24" value="data(__/__/____)" style="rounded=1;whiteSpace=wrap;html=1;fillColor=#cce5ff;strokeColor=#36393d;" vertex="1" parent="1">
          <mxGeometry x="380" y="610" width="120" height="60" as="geometry" />
        </mxCell>
        <mxCell id="1gCm8H_iiXRdlCHyErIo-25" value="horario(__:__)" style="rounded=1;whiteSpace=wrap;html=1;fillColor=#cce5ff;strokeColor=#36393d;" vertex="1" parent="1">
          <mxGeometry x="380" y="680" width="120" height="60" as="geometry" />
        </mxCell>
        <mxCell id="1gCm8H_iiXRdlCHyErIo-26" value="procedimento:" style="rounded=1;whiteSpace=wrap;html=1;fillColor=#cce5ff;strokeColor=#36393d;" vertex="1" parent="1">
          <mxGeometry x="380" y="750" width="120" height="60" as="geometry" />
        </mxCell>
        <mxCell id="1gCm8H_iiXRdlCHyErIo-27" value="inicio" style="rounded=1;whiteSpace=wrap;html=1;" vertex="1" parent="1">
          <mxGeometry x="354" y="870" width="120" height="60" as="geometry" />
        </mxCell>
        <mxCell id="1gCm8H_iiXRdlCHyErIo-28" value="cadastrar cliente" style="rounded=0;whiteSpace=wrap;html=1;" vertex="1" parent="1">
          <mxGeometry x="354" y="990" width="120" height="60" as="geometry" />
        </mxCell>
        <mxCell id="1gCm8H_iiXRdlCHyErIo-31" value="escolher procedimento" style="rounded=0;whiteSpace=wrap;html=1;" vertex="1" parent="1">
          <mxGeometry x="360" y="1220" width="120" height="60" as="geometry" />
        </mxCell>
        <mxCell id="1gCm8H_iiXRdlCHyErIo-33" value="" style="rhombus;whiteSpace=wrap;html=1;" vertex="1" parent="1">
          <mxGeometry x="355" y="1450" width="130" height="100" as="geometry" />
        </mxCell>
        <mxCell id="1gCm8H_iiXRdlCHyErIo-36" value="" style="endArrow=classic;html=1;rounded=0;" edge="1" parent="1">
          <mxGeometry width="50" height="50" relative="1" as="geometry">
            <mxPoint x="413" y="1160" as="sourcePoint" />
            <mxPoint x="413" y="1220" as="targetPoint" />
          </mxGeometry>
        </mxCell>
        <mxCell id="1gCm8H_iiXRdlCHyErIo-38" value="" style="endArrow=classic;html=1;rounded=0;" edge="1" parent="1">
          <mxGeometry width="50" height="50" relative="1" as="geometry">
            <mxPoint x="419.5" y="1280" as="sourcePoint" />
            <mxPoint x="419.5" y="1340" as="targetPoint" />
          </mxGeometry>
        </mxCell>
        <mxCell id="1gCm8H_iiXRdlCHyErIo-39" value="" style="endArrow=classic;html=1;rounded=0;" edge="1" parent="1">
          <mxGeometry width="50" height="50" relative="1" as="geometry">
            <mxPoint x="420" y="1400" as="sourcePoint" />
            <mxPoint x="420" y="1450" as="targetPoint" />
          </mxGeometry>
        </mxCell>
        <mxCell id="1gCm8H_iiXRdlCHyErIo-40" value="" style="endArrow=classic;html=1;rounded=0;" edge="1" parent="1">
          <mxGeometry width="50" height="50" relative="1" as="geometry">
            <mxPoint x="413" y="930" as="sourcePoint" />
            <mxPoint x="413" y="990" as="targetPoint" />
          </mxGeometry>
        </mxCell>
        <mxCell id="1gCm8H_iiXRdlCHyErIo-41" value="" style="endArrow=classic;html=1;rounded=0;" edge="1" parent="1">
          <mxGeometry width="50" height="50" relative="1" as="geometry">
            <mxPoint x="413" y="1050" as="sourcePoint" />
            <mxPoint x="413" y="1090" as="targetPoint" />
            <Array as="points" />
          </mxGeometry>
        </mxCell>
        <mxCell id="1gCm8H_iiXRdlCHyErIo-42" value="" style="rounded=0;whiteSpace=wrap;html=1;" vertex="1" parent="1">
          <mxGeometry x="360" y="1340" width="120" height="60" as="geometry" />
        </mxCell>
        <mxCell id="1gCm8H_iiXRdlCHyErIo-44" value="" style="endArrow=classic;html=1;rounded=0;" edge="1" parent="1">
          <mxGeometry width="50" height="50" relative="1" as="geometry">
            <mxPoint x="485" y="1499.5" as="sourcePoint" />
            <mxPoint x="555" y="1499.5" as="targetPoint" />
          </mxGeometry>
        </mxCell>
        <mxCell id="1gCm8H_iiXRdlCHyErIo-45" value="" style="endArrow=classic;html=1;rounded=0;" edge="1" parent="1">
          <mxGeometry width="50" height="50" relative="1" as="geometry">
            <mxPoint x="355" y="1499.5" as="sourcePoint" />
            <mxPoint x="275" y="1499.5" as="targetPoint" />
          </mxGeometry>
        </mxCell>
        <mxCell id="1gCm8H_iiXRdlCHyErIo-46" value="" style="rounded=0;whiteSpace=wrap;html=1;" vertex="1" parent="1">
          <mxGeometry x="560" y="1480" width="120" height="60" as="geometry" />
        </mxCell>
        <mxCell id="1gCm8H_iiXRdlCHyErIo-47" value="" style="rounded=0;whiteSpace=wrap;html=1;" vertex="1" parent="1">
          <mxGeometry x="150" y="1480" width="120" height="60" as="geometry" />
        </mxCell>
        <mxCell id="1gCm8H_iiXRdlCHyErIo-48" value="" style="endArrow=classic;html=1;rounded=0;" edge="1" parent="1">
          <mxGeometry width="50" height="50" relative="1" as="geometry">
            <mxPoint x="200" y="1540" as="sourcePoint" />
            <mxPoint x="200" y="1620" as="targetPoint" />
          </mxGeometry>
        </mxCell>
        <mxCell id="1gCm8H_iiXRdlCHyErIo-49" value="" style="endArrow=classic;html=1;rounded=0;" edge="1" parent="1">
          <mxGeometry width="50" height="50" relative="1" as="geometry">
            <mxPoint x="619.5" y="1540" as="sourcePoint" />
            <mxPoint x="619.5" y="1610" as="targetPoint" />
          </mxGeometry>
        </mxCell>
        <mxCell id="1gCm8H_iiXRdlCHyErIo-50" value="" style="rounded=0;whiteSpace=wrap;html=1;" vertex="1" parent="1">
          <mxGeometry x="560" y="1610" width="120" height="60" as="geometry" />
        </mxCell>
        <mxCell id="1gCm8H_iiXRdlCHyErIo-51" value="" style="rounded=0;whiteSpace=wrap;html=1;" vertex="1" parent="1">
          <mxGeometry x="150" y="1620" width="120" height="60" as="geometry" />
        </mxCell>
        <mxCell id="1gCm8H_iiXRdlCHyErIo-52" value="verificar se o procedimento esta disponivel" style="rhombus;whiteSpace=wrap;html=1;" vertex="1" parent="1">
          <mxGeometry x="354" y="1089" width="120" height="80" as="geometry" />
        </mxCell>
        <mxCell id="1gCm8H_iiXRdlCHyErIo-55" value="agendar procedimento" style="rounded=0;whiteSpace=wrap;html=1;" vertex="1" parent="1">
          <mxGeometry x="550" y="1099" width="120" height="60" as="geometry" />
        </mxCell>
        <mxCell id="1gCm8H_iiXRdlCHyErIo-56" value="fim" style="rounded=0;whiteSpace=wrap;html=1;" vertex="1" parent="1">
          <mxGeometry x="174" y="1099" width="120" height="60" as="geometry" />
        </mxCell>
        <mxCell id="1gCm8H_iiXRdlCHyErIo-57" value="" style="endArrow=classic;html=1;rounded=0;" edge="1" parent="1">
          <mxGeometry width="50" height="50" relative="1" as="geometry">
            <mxPoint x="474" y="1128.5" as="sourcePoint" />
            <mxPoint x="544" y="1128.5" as="targetPoint" />
          </mxGeometry>
        </mxCell>
        <mxCell id="1gCm8H_iiXRdlCHyErIo-59" value="" style="endArrow=classic;html=1;rounded=0;" edge="1" parent="1">
          <mxGeometry width="50" height="50" relative="1" as="geometry">
            <mxPoint x="354" y="1128.5" as="sourcePoint" />
            <mxPoint x="294" y="1128.5" as="targetPoint" />
          </mxGeometry>
        </mxCell>
      </root>
    </mxGraphModel>
  </diagram>
</mxfile>
